<?xml version="1.0" encoding="UTF-8"?> <svg xmlns="http://www.w3.org/2000/svg" xmlns:xlink="http://www.w3.org/1999/xlink" version="1.1" id="Calque_1" x="0px" y="0px" viewBox="0 0 55.4 24" style="enable-background:new 0 0 55.4 24;" xml:space="preserve"> <style type="text/css"> .st0{fill:#28AD91;} .st1{fill:#272727;} .st2{fill:#FFFFFF;} </style> <path class="st0" d="M40.4,12.9c0.1,0,0.2-0.1,0.2-0.2c0.3-0.3,0.5-0.6,0.8-0.9c0.5-0.5,1-0.5,1.6-0.3c0.2,0.1,0.4,0.4,0.3,0.7 c0,0.2-0.1,0.5-0.2,0.7c0,0,0,0-0.1-0.1c0.3-0.3,0.7-0.6,1-0.9c0.5-0.5,1-0.7,1.7-0.5c0.3,0.1,0.5,0.5,0.4,0.8 c-0.1,0.4-0.3,0.8-0.5,1.2c-0.3,0.7-0.6,1.4-0.9,2.1c-0.2,0.6-0.5,1.1-0.6,1.7c0,0.1-0.1,0.3,0,0.4c0.1,0.1,0.3-0.1,0.4-0.1 c0.3-0.2,0.4-0.5,0.6-0.7c0.2-0.2,0.3-0.4,0.4-0.7c0-0.2,0.1-0.4,0.1-0.5c0.2-0.7,0.3-1.4,0.7-2c0.4-0.6,0.8-1.2,1.4-1.7 c0.6-0.5,1.3-0.7,2.1-0.5c0.7,0.1,1.1,0.6,1.1,1.1c0,0.2,0.1,0.4-0.2,0.5c-0.2,0-0.2-0.2-0.3-0.3c0-0.1-0.1-0.2-0.1-0.3 c-0.1-0.3-0.2-0.4-0.5-0.4c-0.3,0-0.5,0.1-0.8,0.3c-1.3,1.2-2.2,2.7-2.5,4.5c0,0.3,0,0.6,0.1,0.9c0.1,0.3,0.3,0.3,0.5,0.2 c0.4-0.2,0.6-0.6,0.8-0.9c0.5-0.9,0.9-1.8,1.3-2.8c0.1-0.2,0.2-0.4,0.3-0.6c0.1-0.1,0.2-0.1,0.3-0.1c0.3,0,0.5,0,0.7,0.2 c0.2,0.1,0.2,0.3,0.1,0.6c-0.1,0.3-0.2,0.6-0.3,0.8c-0.2,0.6-0.5,1.1-0.7,1.7c-0.1,0.2-0.2,0.4-0.2,0.6c0,0.1,0,0.2,0,0.3 c0,0.1,0,0.2,0.1,0.2c0.1,0,0.2,0,0.2-0.1c0.5-0.6,0.9-1.3,1.3-1.9c0-0.1,0-0.2,0.1-0.3c0.1-0.1,0.1-0.2,0.2-0.1 c0.1,0,0.2,0.2,0.2,0.3c0,0.2,0,0.3-0.1,0.4c-0.2,0.4-0.4,0.8-0.7,1.2c-0.2,0.3-0.4,0.6-0.7,0.9c-0.4,0.4-0.8,0.4-1.2,0.2 c-0.3-0.1-0.5-0.3-0.6-0.6c-0.1-0.2-0.1-0.1-0.2-0.1c-0.2,0.2-0.4,0.4-0.6,0.5c-0.7,0.5-1.5,0.2-1.9-0.5c-0.1-0.1-0.1-0.3-0.2-0.4 c0-0.1-0.1-0.2-0.2,0c-0.2,0.2-0.3,0.4-0.5,0.6c-0.3,0.3-0.6,0.6-1,0.7c-0.8,0.2-1.2-0.6-1.1-1.1c0.1-0.5,0.2-1,0.4-1.5 c0.2-0.5,0.3-0.9,0.5-1.4c0.2-0.5,0.4-1,0.6-1.4c0.1-0.1,0.2-0.3,0-0.4c-0.1-0.1-0.3,0-0.4,0.1c-0.5,0.3-0.8,0.8-1.1,1.2 c-0.1,0.1-0.2,0.3-0.3,0.4c-0.4,0.5-0.6,1-0.8,1.6c-0.2,0.5-0.4,0.9-0.5,1.4c-0.1,0.2-0.1,0.5-0.1,0.7c0,0.3-0.2,0.5-0.4,0.5 c-0.1,0-0.3,0-0.5,0c-0.3-0.1-0.3-0.3-0.2-0.7c0.2-0.6,0.3-1.2,0.6-1.8c0.2-0.6,0.4-1.2,0.6-1.8c0.1-0.3,0.2-0.7,0.4-1 c0-0.1,0.1-0.2,0.1-0.3c0-0.1,0.1-0.2,0-0.3c-0.1-0.1-0.2,0-0.3,0.1c-0.4,0.4-0.9,0.7-1.2,1.2c-0.5,0.6-0.8,1.2-1.1,1.9 c-0.3,0.7-0.6,1.5-0.7,2.3c0,0.2-0.1,0.3-0.4,0.4c-0.3,0-0.6,0-0.9-0.2c-0.1-0.1-0.2-0.1-0.3,0c-0.4,0.2-0.7,0.3-1.1,0.3 c-0.5,0-1-0.5-0.9-1.1c0.1-0.7,0.3-1.4,0.6-2.1c0.4-1,0.7-2,1.1-3c0.2-0.7,0.9-0.9,1.5-0.7c0.2,0.1,0.3,0.3,0.2,0.4 c-0.1,0.4-0.3,0.7-0.4,1.1c-0.2,0.5-0.4,0.9-0.6,1.4c-0.1,0.3-0.3,0.6-0.4,0.9c-0.2,0.4-0.4,0.8-0.5,1.3c-0.1,0.3-0.2,0.6-0.2,0.9 c0,0.1,0,0.3,0.2,0.3c0.1,0.1,0.2,0,0.3-0.1c0.3-0.2,0.5-0.4,0.7-0.7c0.2-0.3,0.4-0.6,0.5-1c0.3-0.7,0.5-1.4,0.8-2.1 c0.2-0.4,0.3-0.8,0.4-1.2c0.1-0.3,0.2-0.6,0.3-0.8c0.1-0.1,0.1-0.3,0.1-0.4c0.1-0.1,0.1-0.2,0.3-0.2c0.3,0,0.6,0,0.9,0.1 c0.2,0.1,0.3,0.4,0.2,0.6C40.7,12.4,40.5,12.6,40.4,12.9z"></path> <path class="st0" d="M12.5,23c-3.1,0-6.3,0-9.4,0c-0.5,0-0.4,0-0.4-0.4c0-0.4-0.1-0.4,0.4-0.4c0.2,0,0.4,0,0.7,0C4,22.2,4,22.1,4,22 c0-0.6,0-1.2,0-1.8c0-0.2-0.1-0.3-0.2-0.4c-0.1-0.2,0.1-0.3,0.2-0.4c0.7-0.4,1.4-0.8,2-1.2c0.1-0.1,0.2-0.1,0.3,0 c1.7,0.5,3.4,1.1,5.2,1.6c0.2,0.1,0.2,0.1,0.2,0.3c-0.2,0.6-0.2,1.2-0.2,1.9c0,0.1,0.1,0.2,0.2,0.2c0.2,0,0.4,0,0.6,0 c0.1,0,0.1-0.1,0.1-0.2c0-0.6,0-1.2,0-1.8c0-0.1,0-0.3-0.1-0.4c-0.1-0.2,0-0.2,0.1-0.3c0.6-0.4,1.3-0.7,1.9-1.1 c0.2-0.1,0.4-0.2,0.7-0.1c1,0.3,1.9,0.6,2.9,0.9c0.7,0.2,1.4,0.4,2.1,0.6c0.2,0.1,0.2,0.1,0.2,0.3c-0.2,0.6-0.2,1.2-0.2,1.9 c0,0.2,0.1,0.2,0.2,0.2c0.4,0,0.7,0,1.1,0c0.3,0,0.5,0,0.8,0c0.2,0,0.2,0.1,0.2,0.2c0,0.2,0,0.3,0,0.5c0,0.1-0.1,0.2-0.2,0.2 c-0.1,0-0.2,0-0.3,0C18.8,23,15.6,23,12.5,23C12.5,23,12.5,23,12.5,23z M17.4,22.2C17.4,22.2,17.4,22.2,17.4,22.2c0.4,0,0.8,0,1.1,0 c0.2,0,0.3,0,0.2-0.2c0-0.2,0-0.5,0-0.7c0-0.1,0-0.2-0.2-0.2c-0.8-0.2-1.6-0.4-2.4-0.6c-0.1,0-0.2,0-0.2,0.1c0,0.5,0,1,0,1.4 c0,0.2,0.1,0.2,0.3,0.2C16.7,22.2,17,22.2,17.4,22.2z M8.9,22.2C8.9,22.2,8.9,22.1,8.9,22.2c0.4,0,0.7,0,1.1,0 c0.2,0,0.2-0.1,0.2-0.2c0-0.2,0-0.5,0-0.7c0-0.1,0-0.2-0.2-0.2c-0.3-0.1-0.6-0.2-0.9-0.2c-0.5-0.1-0.9-0.2-1.4-0.3 c-0.2,0-0.3,0-0.3,0.2c0,0.5,0,0.9,0,1.4c0,0.2,0.1,0.2,0.2,0.2C8.2,22.2,8.5,22.2,8.9,22.2z"></path> <path class="st0" d="M27.5,20c-0.3,0-0.7,0-1-0.1c-0.6-0.2-1-0.5-1.1-1.1c-0.1-0.5-0.1-1,0-1.4c0.1-0.5,0.2-1,0.3-1.5 c0.2-0.7,0.4-1.4,0.7-2.1c0.2-0.4,0.3-0.9,0.6-1.3c0.3-0.6,0.5-1.2,0.8-1.9c0.3-0.7,0.6-1.4,1-2.1c0.2-0.4,0.4-0.9,0.6-1.4 c0-0.1,0.1-0.2,0.2-0.3c0,0,0.1-0.1,0-0.1c0,0-0.1,0-0.1,0c-0.1,0.1-0.3,0.1-0.4,0.2c-0.6,0.4-1.2,0.8-1.7,1.4 c-0.3,0.4-0.5,0.7-0.6,1.2c0,0.2-0.1,0.3-0.2,0.4C26.3,9.9,26,10,25.9,9.9c-0.7-0.4-0.8-0.9-0.6-1.6c0.1-0.5,0.4-0.9,0.8-1.3 c0.1-0.1,0.2-0.2,0.3-0.3c0.4-0.5,0.9-0.8,1.3-1.1c0.2-0.2,0.5-0.3,0.7-0.4c0.4-0.2,0.9-0.3,1.3-0.4c0.6-0.1,1.2-0.1,1.9,0 c0.5,0.1,0.9,0.3,1.3,0.6c0.6,0.4,1.1,1,1.4,1.6c0.3,0.6,0.5,1.1,0.7,1.8c0.2,0.8,0.2,1.6,0.2,2.5c-0.1,1.2-0.4,2.3-0.8,3.4 c-0.2,0.6-0.5,1.2-0.9,1.7c-0.6,0.9-1.4,1.7-2.2,2.4c-0.5,0.4-1.1,0.7-1.7,0.9C28.9,19.9,28.2,20.1,27.5,20z M34.1,11.3 c0-0.3,0-0.7-0.1-1c-0.1-1-0.4-1.9-1-2.8c-0.3-0.4-0.6-0.8-1.1-1c-0.3-0.1-0.3-0.1-0.4,0.1c0,0.1-0.1,0.2-0.1,0.3 c-1,1.7-2,3.5-2.9,5.2c-0.8,1.5-1.6,3-2.1,4.7c-0.1,0.5-0.3,0.9-0.2,1.4c0,0.5,0.3,0.8,0.8,1c0.5,0.2,1,0.2,1.5,0.1 c1.1-0.2,2.1-0.8,2.9-1.6C33.1,15.9,34,13.8,34.1,11.3z"></path> <path class="st0" d="M3.8,4.3c0-0.7,0.1-1.3,0.1-2C3.9,2.2,4,2.1,4.1,2c0.8-0.4,1.6-0.6,2.4-1C6.7,1,6.9,1,7.1,1.1 c0.6,0.2,1.2,0.4,1.8,0.6c0.6,0.2,1.1,0.4,1.7,0.6c0.3,0.1,0.6,0.2,0.9,0.4c0.1,0,0.2,0.1,0.2,0.2c0,1.2,0.1,2.4,0.1,3.6 c0,0.2,0,0.2-0.2,0.2c-1.6-0.5-3.3-1-5-1.6C6.3,5,6,5.1,5.7,5.3C5.1,5.6,4.6,5.9,4,6.2C3.8,6.4,3.8,6.3,3.8,6.1 C3.8,5.5,3.8,4.9,3.8,4.3C3.8,4.3,3.8,4.3,3.8,4.3z"></path> <path class="st0" d="M11.8,13.7C11.7,13.7,11.7,13.7,11.8,13.7c-0.1,0.7-0.2,0.7-0.8,0.5c-1.4-0.4-2.8-0.9-4.2-1.3 c-0.2-0.1-0.5,0-0.7,0.1c-0.6,0.3-1.1,0.7-1.7,1c-0.1,0-0.1,0-0.2,0C4,13.8,4,13.6,3.9,13.4c-0.1-0.1,0-0.1,0.1-0.2 c0.3-0.2,0.6-0.4,0.9-0.5C5.2,12.4,5.6,12.2,6,12c0.1-0.1,0.2-0.1,0.4-0.1c1.2,0.3,2.4,0.7,3.6,1.1c0.5,0.1,1,0.3,1.5,0.5 C11.7,13.5,11.8,13.5,11.8,13.7z"></path> <path class="st0" d="M6.4,5.6C6.7,5.7,7,5.8,7.3,5.9c1.4,0.4,2.8,0.9,4.2,1.3c0.3,0.1,0.3,0.1,0.2,0.4c-0.1,0.5-0.1,0.5-0.7,0.4 C9.6,7.5,8.1,7,6.7,6.6C6.4,6.5,6.2,6.6,6,6.7C5.5,7,5,7.3,4.4,7.6C4.3,7.7,4.2,7.7,4.1,7.5C4,7.4,3.9,7.3,3.9,7.1 C3.8,7,3.8,6.9,4,6.9c0.6-0.3,1.2-0.7,1.8-1C5.9,5.7,6.1,5.6,6.4,5.6z"></path> <path class="st0" d="M20.3,15.2c-0.1,0.2-0.1,0.4-0.1,0.5c-0.1,0.2-0.2,0.2-0.4,0.2c-1.1-0.3-2.1-0.6-3.2-1c-0.5-0.2-1-0.3-1.5-0.5 c-0.1,0-0.2,0-0.3,0c-0.6,0.3-1.2,0.7-1.8,1c-0.1,0.1-0.2,0.1-0.3-0.1c-0.4-0.7-0.4-0.5,0.2-0.9c0.5-0.3,1.1-0.6,1.6-0.9 c0.2-0.1,0.4-0.1,0.6-0.1c1.6,0.5,3.3,1,4.9,1.5C20.1,15.1,20.3,15.1,20.3,15.2z"></path> <path class="st0" d="M19.9,9.6c-0.3-0.1-0.5-0.1-0.8-0.2c-0.3-0.1-0.7-0.2-1-0.3c-0.9-0.3-1.7-0.5-2.6-0.8c-0.1,0-0.1,0-0.2-0.1 C15,8,14.7,8.1,14.3,8.4c-0.5,0.3-1,0.5-1.4,0.8c-0.1,0.1-0.2,0-0.2,0c-0.4-0.5-0.4-0.6,0.2-0.9c0.6-0.4,1.2-0.7,1.8-1 c0.1-0.1,0.2-0.1,0.3,0c1.3,0.4,2.6,0.8,3.9,1.2c0.4,0.1,0.9,0.2,1.3,0.4c0.2,0,0.3,0.1,0.2,0.3c-0.1,0.1,0,0.3-0.1,0.4 C20.1,9.6,20,9.6,19.9,9.6z"></path> <path class="st0" d="M15,6.5c-0.2,0-0.3,0.1-0.4,0.1C14,7,13.5,7.3,12.9,7.6c-0.1,0.1-0.2,0.1-0.3-0.1c-0.1-0.1-0.1-0.2-0.2-0.3 c-0.1-0.2-0.1-0.3,0.1-0.4c0.7-0.4,1.3-0.8,2-1.2c0.2-0.1,0.3-0.1,0.5-0.1c1.5,0.5,3,0.9,4.5,1.4c0.2,0.1,0.4,0.1,0.6,0.2 c0.1,0,0.1,0.1,0.1,0.2c0,0.2-0.1,0.3-0.1,0.5C20.1,8,20,8,19.8,8c-0.8-0.1-1.5-0.5-2.2-0.7c-0.8-0.2-1.6-0.5-2.4-0.7 C15.1,6.6,15,6.6,15,6.5z"></path> <path class="st0" d="M6.4,10.3c0.3,0.1,0.6,0.2,0.9,0.3c1.4,0.4,2.8,0.8,4.2,1.3c0.1,0,0.1,0.1,0.2,0.1c0.1,0,0.1,0.1,0.1,0.2 c-0.1,0.7-0.1,0.7-0.8,0.5c-1.5-0.4-2.9-0.9-4.4-1.3c-0.2-0.1-0.3,0-0.4,0.1c-0.6,0.3-1.1,0.7-1.7,1c-0.2,0.1-0.3,0.1-0.3-0.1 C4,12.1,4,12,3.9,11.9c-0.1-0.1-0.1-0.2,0-0.2c0.3-0.2,0.6-0.4,1-0.6c0.3-0.1,0.5-0.3,0.8-0.5C5.9,10.5,6.1,10.3,6.4,10.3z"></path> <path class="st0" d="M14.8,15c0.2,0,0.4,0.1,0.6,0.2c1.2,0.4,2.4,0.7,3.6,1.1c0.4,0.1,0.7,0.2,1.1,0.3c0.1,0,0.1,0.1,0.1,0.2 c-0.1,0.2-0.1,0.3-0.1,0.5c0,0.1-0.1,0.1-0.2,0.1c-0.3,0-0.6-0.1-0.8-0.2c-0.2-0.1-0.4-0.1-0.6-0.2c-0.3-0.1-0.6-0.2-0.9-0.3 c-0.9-0.3-1.7-0.5-2.6-0.8c-0.2,0-0.3,0-0.4,0.1c-0.6,0.3-1.1,0.6-1.7,1c-0.1,0.1-0.2,0.1-0.3-0.1c-0.4-0.5-0.4-0.5,0.2-0.9 c0.6-0.3,1.1-0.7,1.7-1C14.6,15.1,14.7,15,14.8,15z"></path> <path class="st0" d="M19.9,12.7c-0.4,0-0.7-0.2-1-0.2c-0.7-0.2-1.4-0.4-2.1-0.7c-0.6-0.2-1.2-0.4-1.8-0.5c-0.2-0.1-0.3,0-0.5,0.1 c-0.6,0.3-1.1,0.7-1.7,1c-0.1,0.1-0.2,0.1-0.3-0.1c-0.1-0.2-0.2-0.3-0.3-0.5c-0.1-0.1,0-0.1,0.1-0.2c0.7-0.4,1.4-0.8,2.1-1.2 c0.2-0.1,0.3-0.1,0.5,0c1.1,0.3,2.2,0.7,3.3,1c0.6,0.2,1.2,0.4,1.7,0.5c0.2,0,0.2,0.1,0.2,0.3c0,0.1-0.1,0.3-0.1,0.4 C20.1,12.7,20,12.8,19.9,12.7z"></path> <path class="st0" d="M19.9,19.1c-0.4-0.1-0.8-0.2-1.3-0.4c-0.6-0.2-1.2-0.4-1.8-0.6c-0.6-0.2-1.1-0.3-1.7-0.5 c-0.2-0.1-0.4,0-0.6,0.1c-0.6,0.3-1.1,0.6-1.7,1c-0.1,0.1-0.2,0.1-0.3-0.1c0-0.1-0.1-0.2-0.2-0.3c-0.1-0.2-0.1-0.3,0.1-0.4 c0.6-0.4,1.2-0.7,1.8-1.1c0.2-0.1,0.5-0.2,0.8-0.1c1.1,0.4,2.3,0.7,3.4,1c0.5,0.2,1,0.3,1.5,0.5c0.2,0,0.2,0.1,0.1,0.3 c-0.1,0.1-0.1,0.2-0.1,0.4C20.1,19,20,19.1,19.9,19.1z"></path> <path class="st0" d="M6.3,8.8c0.2,0,0.5,0.1,0.7,0.2c1.5,0.5,3,0.9,4.5,1.4c0.1,0,0.1,0,0.2,0.1c0.1,0,0.1,0.1,0.1,0.2 c0,0.1-0.1,0.3-0.1,0.4c-0.1,0.2-0.1,0.3-0.3,0.2c-0.7-0.2-1.4-0.4-2.1-0.6C8.4,10.2,7.5,10,6.6,9.7C6.4,9.7,6.2,9.7,6,9.8 c-0.5,0.3-1,0.6-1.6,0.9c-0.2,0.1-0.3,0.1-0.4-0.1c0,0,0,0,0,0c-0.2-0.5-0.3-0.5,0.3-0.8C4.9,9.5,5.5,9.1,6,8.8 C6.1,8.8,6.2,8.7,6.3,8.8z"></path> <path class="st0" d="M6.3,15.1c0.3,0,0.6,0.2,0.9,0.2c1.5,0.4,2.9,0.9,4.4,1.3c0.1,0,0.2,0.1,0.2,0.2c0,0.1-0.1,0.3-0.1,0.4 c0,0.2-0.2,0.2-0.3,0.2c-0.5-0.2-1.1-0.3-1.6-0.5c-1-0.3-2.1-0.6-3.1-0.9c-0.2,0-0.3,0-0.4,0.1c-0.5,0.3-1,0.6-1.6,0.9 c-0.1,0-0.1,0.1-0.2,0.1c-0.1,0.1-0.2,0-0.2,0c-0.1-0.2-0.2-0.4-0.3-0.6c-0.1-0.2,0.1-0.2,0.2-0.3c0.6-0.4,1.3-0.7,1.9-1.1 C6.1,15.1,6.2,15,6.3,15.1z"></path> <path class="st0" d="M14.8,4c0.3,0,0.5,0.1,0.8,0.2c1.3,0.4,2.6,0.8,3.9,1.2c0.2,0.1,0.4,0.1,0.6,0.2c0.1,0,0.1,0.1,0.1,0.2 c-0.1,0.2-0.1,0.4-0.2,0.5c-0.1,0.2-0.2,0.1-0.3,0.1c-0.5-0.1-1-0.3-1.5-0.4c-1.1-0.3-2.2-0.7-3.2-1c-0.2-0.1-0.4,0-0.6,0.1 C14,5.4,13.4,5.7,12.9,6c-0.2,0.1-0.2,0.1-0.3-0.1c0-0.1-0.1-0.2-0.1-0.2c-0.2-0.3-0.2-0.3,0.1-0.5c0.6-0.4,1.2-0.7,1.8-1.1 C14.6,4.1,14.7,4,14.8,4z"></path> <path class="st0" d="M11.8,8.9C11.8,8.9,11.8,8.9,11.8,8.9c-0.2,0.7-0.2,0.7-0.8,0.5C9.5,9,8,8.6,6.5,8.1c-0.1,0-0.2,0-0.3,0 C5.6,8.5,5,8.8,4.4,9.2C4.2,9.3,4.2,9.3,4.1,9.1C4,9,3.9,8.8,3.8,8.6c0-0.1,0-0.1,0.1-0.1C4.6,8,5.4,7.6,6.2,7.2c0.1,0,0.1,0,0.2,0 c1.7,0.5,3.5,1.1,5.2,1.6C11.7,8.8,11.8,8.8,11.8,8.9z"></path> <path class="st0" d="M14.8,8.7c0.2,0,0.5,0.1,0.7,0.2c1.3,0.4,2.7,0.8,4,1.2c0.2,0.1,0.4,0.1,0.6,0.2c0.2,0,0.2,0.1,0.2,0.3 c0,0.1-0.1,0.2-0.1,0.3c-0.1,0.4-0.2,0.4-0.5,0.2c-1.4-0.5-2.9-0.9-4.3-1.3c-0.3-0.1-0.6-0.1-0.9,0.1c-0.5,0.3-1,0.6-1.5,0.9 c-0.1,0.1-0.2,0.1-0.3-0.1c0-0.1-0.1-0.2-0.2-0.3c-0.1-0.2-0.1-0.3,0.1-0.3c0.7-0.4,1.3-0.8,2-1.2C14.6,8.8,14.7,8.7,14.8,8.7z"></path> <path class="st0" d="M19.9,14.3c-0.4-0.1-0.9-0.3-1.3-0.4c-1.1-0.3-2.3-0.7-3.4-1c-0.2-0.1-0.4,0-0.7,0.1c-0.5,0.3-1.1,0.6-1.6,0.9 c-0.1,0.1-0.2,0.1-0.3-0.1c-0.4-0.5-0.4-0.5,0.2-0.9c0.6-0.4,1.2-0.7,1.8-1c0.1-0.1,0.2-0.1,0.4,0c1,0.3,1.9,0.6,2.9,0.9 c0.3,0.1,0.7,0.2,1,0.3c0.4,0.1,0.9,0.3,1.3,0.4c0.1,0,0.1,0.1,0.1,0.2c0,0.2-0.1,0.4-0.2,0.6C20,14.3,20,14.4,19.9,14.3z"></path> <path class="st0" d="M6.3,16.6c0.3,0,0.5,0.1,0.8,0.2c1.4,0.4,2.8,0.8,4.2,1.3c0.5,0.2,0.5,0.2,0.4,0.7c-0.1,0.3-0.1,0.3-0.4,0.2 c-1.5-0.4-2.9-0.9-4.4-1.3c-0.3-0.1-0.6-0.1-0.9,0.1c-0.5,0.3-1,0.6-1.6,0.9c-0.1,0-0.1,0.1-0.2,0c-0.1-0.2-0.2-0.3-0.3-0.4 C3.8,18,3.9,18,4,17.9c0.5-0.3,1-0.6,1.5-0.8c0.2-0.1,0.4-0.2,0.6-0.3C6.1,16.7,6.2,16.6,6.3,16.6z"></path> <path class="st0" d="M11.8,15.2c0,0.2-0.1,0.5-0.2,0.7c0,0.1-0.1,0.1-0.2,0c-0.7-0.2-1.4-0.4-2.1-0.6c-0.7-0.2-1.4-0.4-2.1-0.6 c-0.2-0.1-0.4-0.1-0.6-0.2c-0.2-0.1-0.3,0-0.5,0.1c-0.6,0.3-1.1,0.6-1.6,0.9c-0.2,0.1-0.3,0-0.4-0.1C4,15.3,4,15.2,3.9,15.1 c-0.2-0.3-0.1-0.3,0.1-0.5c0.6-0.3,1.2-0.7,1.9-1.1c0.2-0.1,0.4-0.1,0.6-0.1c1.6,0.5,3.3,1,4.9,1.5C11.6,15.1,11.8,15,11.8,15.2z"></path> <path class="st0" d="M37.5,10.4c0-0.3,0.1-0.5,0.2-0.8c0.1-0.4,0.3-0.7,0.4-1.1C38.2,8,38.6,7.8,39.2,8c0.3,0.1,0.4,0.3,0.6,0.5 c0.1,0.1,0.1,0.2,0,0.3c-0.3,0.3-0.6,0.6-0.8,1c-0.2,0.3-0.4,0.6-0.6,0.8c-0.2,0.2-0.4,0.3-0.6,0.2C37.4,10.8,37.5,10.6,37.5,10.4z"></path> <path class="st1" d="M28.8,22.3c-1,0-1.9,0-2.9,0c-0.1,0-0.2,0-0.2-0.2c0-0.2,0.1-0.1,0.2-0.1c0.2,0,0.4,0,0.6,0c1.7,0,3.5,0,5.2,0 c0.1,0,0.2,0,0.2,0.1c0,0.1-0.1,0.2-0.2,0.2C30.8,22.3,29.8,22.3,28.8,22.3C28.8,22.3,28.8,22.3,28.8,22.3z"></path> <path class="st1" d="M35.9,21.8c0,0.1,0,0.2,0,0.3c0,0.1-0.1,0.2-0.2,0.1c-0.1-0.1-0.1-0.1-0.2,0c-0.5,0.1-0.7,0-0.8-0.5 c-0.1-0.4-0.1-0.7,0.1-1c0.1-0.2,0.3-0.3,0.5-0.3c0.2,0,0.3,0.1,0.4,0.3c0,0.1,0.1,0.2,0,0.2c-0.1,0-0.2,0-0.2-0.1 c0-0.2-0.2-0.2-0.3-0.2c-0.2,0-0.3,0.2-0.3,0.3c-0.1,0.3-0.1,0.5,0,0.8c0.1,0.3,0.2,0.4,0.4,0.4c0.2,0,0.3-0.3,0.3-0.5 c0-0.1-0.1-0.1-0.1-0.1c-0.1,0-0.2,0-0.3,0c-0.1,0-0.1,0-0.1-0.1c0,0,0-0.1,0.1-0.1c0.2,0,0.3,0,0.5,0c0.1,0,0.1,0.1,0.1,0.1 C35.9,21.6,35.9,21.7,35.9,21.8C35.9,21.8,35.9,21.8,35.9,21.8z"></path> <path class="st1" d="M39.1,22.2c-0.2,0-0.3,0-0.4-0.2c-0.1-0.1-0.2-0.3-0.3-0.4c-0.1-0.2-0.2-0.1-0.3-0.1c-0.1,0-0.1,0.1-0.1,0.2 c0,0.1,0,0.3,0,0.4c0,0.1,0,0.1-0.1,0.1c-0.1,0-0.1-0.1-0.1-0.1c0-0.5,0-1,0-1.6c0,0,0-0.1,0-0.1c0.2,0,0.4,0,0.6,0 c0.2,0,0.3,0.1,0.4,0.3c0.1,0.2,0,0.4-0.2,0.5c-0.2,0.1-0.1,0.2,0,0.3C38.8,21.8,38.9,22,39.1,22.2z M38.1,21c0,0.4,0,0.4,0.3,0.4 c0.2,0,0.3-0.2,0.3-0.4c0-0.2-0.2-0.3-0.5-0.3C38,20.6,38.1,20.8,38.1,21C38.1,20.9,38.1,20.9,38.1,21z"></path> <path class="st1" d="M40.8,21.4c0-0.3,0-0.5,0.1-0.7c0.1-0.3,0.4-0.3,0.6-0.2c0.2,0,0.4,0.1,0.4,0.3c0.1,0.4,0.1,0.7,0,1.1 c-0.1,0.3-0.3,0.4-0.6,0.4c-0.2,0-0.4-0.2-0.5-0.5C40.8,21.6,40.7,21.5,40.8,21.4z M41.8,21.3c0-0.2,0-0.3-0.1-0.5 c-0.1-0.1-0.2-0.2-0.3-0.2c-0.2,0-0.3,0.1-0.3,0.2c-0.1,0.4-0.1,0.7,0,1.1c0,0.1,0.2,0.2,0.3,0.2c0.2,0,0.3-0.1,0.3-0.2 C41.8,21.7,41.8,21.5,41.8,21.3z"></path> <path class="st1" d="M45,21.2c0,0.2,0,0.4,0,0.6c0,0.2-0.2,0.4-0.4,0.5c-0.2,0-0.6-0.1-0.6-0.3c0,0,0-0.1,0-0.1c0-0.4,0-0.9,0-1.3 c0-0.1,0-0.1,0.1-0.1c0.1,0,0.1,0.1,0.1,0.1c0,0.4,0,0.8,0,1.1c0,0.3,0.1,0.4,0.3,0.4c0.2,0,0.4-0.1,0.4-0.4c0-0.4,0-0.7,0-1.1 c0-0.1,0-0.2,0.1-0.2c0.2,0,0.1,0.1,0.1,0.2C45,20.8,45,21,45,21.2z"></path> <path class="st1" d="M50.2,21.3c0-0.2,0-0.5,0-0.7c0-0.1,0-0.2,0.1-0.1c0.3,0,0.5,0,0.8,0c0.1,0,0.1,0,0.1,0.1 c0,0.1-0.1,0.1-0.1,0.1c-0.2,0-0.3,0-0.5,0c0,0-0.1,0-0.1,0c-0.2,0.1,0,0.3-0.1,0.5c0,0.1,0,0.1,0.1,0.1c0.1,0,0.2,0,0.4,0 c0,0,0.1,0,0.1,0.1c0,0.1,0,0.1-0.1,0.1c0,0,0,0-0.1,0c-0.1,0-0.4-0.1-0.4,0c-0.1,0.2,0,0.4,0,0.6c0,0.1,0.1,0.1,0.1,0.1 c0.2,0,0.4,0,0.6,0c0.1,0,0.1,0,0.1,0.1c0,0.1-0.1,0.1-0.1,0.1c-0.3,0-0.5,0-0.8,0c-0.1,0-0.1,0-0.1-0.1 C50.2,21.8,50.2,21.6,50.2,21.3z"></path> <path class="st1" d="M47.1,21.3c0-0.2,0-0.5,0-0.7c0-0.1,0-0.1,0.1-0.1c0.2,0,0.3,0,0.5,0c0.2,0,0.3,0.2,0.4,0.4 c0,0.2,0,0.4-0.2,0.5c-0.1,0.1-0.3,0.1-0.5,0.1c-0.1,0-0.2,0-0.2,0.2c0,0.1,0,0.2,0,0.3c0,0.1,0.1,0.2-0.1,0.2 c-0.2,0-0.1-0.1-0.1-0.2C47.1,21.8,47.1,21.6,47.1,21.3C47.1,21.3,47.1,21.3,47.1,21.3z M47.3,21c0,0.1,0,0.2,0,0.3 c0,0.1,0,0.1,0.1,0.1c0.1,0,0.2,0,0.3,0c0.2-0.1,0.3-0.3,0.2-0.5c-0.1-0.2-0.2-0.3-0.5-0.2C47.2,20.6,47.4,20.8,47.3,21 C47.3,20.9,47.3,21,47.3,21z"></path> <path class="st2" d="M47.3,21C47.3,21,47.3,20.9,47.3,21c0-0.2-0.1-0.4,0.1-0.4c0.3,0,0.4,0,0.5,0.2c0.1,0.2,0,0.4-0.2,0.5 c-0.1,0.1-0.2,0-0.3,0c-0.1,0-0.1,0-0.1-0.1C47.3,21.2,47.3,21.1,47.3,21z"></path> </svg> 